<?xml version="1.0" encoding="UTF-8" standalone="no"?>
<svg
   version="1.1"
   width="3.9370in"
   height="3.9370in"
   viewBox="0 0 283.4646 283.4646"
   id="svg26"
   sodipodi:docname="logo.svg"
   inkscape:version="1.3.2 (091e20e, 2023-11-25, custom)"
   xmlns:inkscape="http://www.inkscape.org/namespaces/inkscape"
   xmlns:sodipodi="http://sodipodi.sourceforge.net/DTD/sodipodi-0.dtd"
   xmlns="http://www.w3.org/2000/svg"
   xmlns:svg="http://www.w3.org/2000/svg">
  <defs
     id="defs26" />
  <sodipodi:namedview
     id="namedview26"
     pagecolor="#ffffff"
     bordercolor="#000000"
     borderopacity="0.25"
     inkscape:showpageshadow="2"
     inkscape:pageopacity="0.0"
     inkscape:pagecheckerboard="0"
     inkscape:deskcolor="#d1d1d1"
     inkscape:document-units="in"
     inkscape:zoom="2.1722335"
     inkscape:cx="194.27009"
     inkscape:cy="223.04232"
     inkscape:window-width="1920"
     inkscape:window-height="1017"
     inkscape:window-x="-8"
     inkscape:window-y="-8"
     inkscape:window-maximized="1"
     inkscape:current-layer="svg26" />
  <g
     id="g26"
     transform="translate(-34.181481,-0.69053497)">
    <g
       id="Layer1000">
      <path
         d="m 157.591,130.482 5.079,0.9427 1.3972,5.214 -3.9272,3.3552 v 0.4602 l 3.927,3.3557 -1.3974,5.2151 -5.0736,0.9272 -0.2357,0.4109 1.7246,4.8727 -3.817,3.817 -4.8711,-1.7242 -0.3984,0.2301 -0.9423,5.0789 -5.214,1.3973 -3.357,-3.9286 -0.4576,2e-4 -3.357,3.9286 -5.2136,-1.3969 -0.9429,-5.0791 -0.3986,-0.2303 -4.8709,1.7244 -3.8172,-3.8172 1.7242,-4.8711 -0.2303,-0.3991 -5.0786,-0.9422 -1.397,-5.2139 3.9268,-3.3555 v -0.4602 l -3.926,-3.3548 1.3988,-5.2188 5.0698,-0.913 0.2383,-0.4188 -1.7258,-4.8763 3.8178,-3.8177 4.855,1.7386 0.4135,-0.2412 0.9433,-5.0815 5.2138,-1.3971 3.357,3.9283 0.4572,2e-4 3.3566,-3.9283 5.212,1.3965 0.9421,5.0779 0.4014,0.2319 4.8705,-1.7243 3.8172,3.8171 -1.7242,4.8707 z m 0.1864,-4.9733 -2.8059,-2.806 -4.6885,1.6603 -1.3037,-0.7537 -0.9068,-4.8899 -3.8334,-1.0269 -3.2308,3.7817 -1.5039,-6e-4 -3.2309,-3.7813 -3.8334,1.0269 -0.907,4.8897 -1.3181,0.7685 -4.6747,-1.6745 -2.8055,2.8056 1.6594,4.6877 -0.7593,1.3333 -4.8837,0.8793 -1.0266,3.832 3.7815,3.2311 v 1.5041 l -3.7815,3.2311 1.0268,3.8334 4.8906,0.9074 0.7524,1.3029 -1.6598,4.6889 2.8059,2.8059 4.6889,-1.6598 1.3031,0.753 0.9072,4.8903 3.8332,1.0267 3.2311,-3.7815 1.5045,-4e-4 3.2308,3.7817 3.8336,-1.0271 0.907,-4.8901 1.3029,-0.7528 4.6889,1.6598 2.8059,-2.8059 -1.6596,-4.6883 0.7561,-1.3185 4.8871,-0.8928 1.0266,-3.8328 -3.7815,-3.2311 v -1.5041 l 3.7817,-3.2309 -1.027,-3.8336 -4.8902,-0.907 -0.7532,-1.3028 z"
         style="fill:#ffffff;fill-rule:evenodd"
         id="path2" />
      <path
         d="m 157.6812,130.3545 5.1026,0.9471 1.4436,5.387 -3.9455,3.3706 -2e-4,0.3297 3.9453,3.3712 -1.4436,5.3882 -5.0972,0.9313 -0.1705,0.2976 1.7326,4.8956 -3.9433,3.9432 -4.8939,-1.7322 -0.2852,0.165 -0.9465,5.1024 -5.387,1.4436 -3.3726,-3.9467 h -0.3272 l -3.3724,3.9469 -5.3864,-1.443 -0.9473,-5.1028 -0.2854,-0.1652 -4.8937,1.7324 -3.9435,-3.9434 1.7322,-4.894 -0.1649,-0.2856 -5.1024,-0.9469 -1.4432,-5.3866 3.9451,-3.371 v -0.3299 l -3.9443,-3.3702 1.445,-5.392 5.0932,-0.9172 0.1737,-0.3049 -1.7342,-4.8995 3.9445,-3.9445 4.8775,1.7466 0.3002,-0.1752 0.9477,-5.1056 5.3866,-1.4431 3.3726,3.9466 h 0.3264 l 3.3724,-3.9464 5.3848,1.4425 0.9464,5.1016 0.2883,0.1668 4.8933,-1.7324 3.9435,3.9435 -1.7322,4.8935 z m -0.0671,-4.8087 -2.6797,-2.6797 -4.6656,1.6522 -1.4169,-0.8188 -0.9024,-4.8663 -3.6607,-0.9807 -3.2152,3.7636 -1.6346,-0.001 -3.2152,-3.7628 -3.6607,0.9807 -0.9026,4.8657 -1.4311,0.8346 -4.6524,-1.6666 -2.6789,2.6789 1.6512,4.6646 -0.824,1.447 -4.8602,0.8751 -0.9806,3.6588 3.7633,3.2157 v 1.6344 l -3.7633,3.2156 0.9808,3.6606 4.8667,0.9028 0.8177,1.4163 -1.6518,4.6661 2.6797,2.6796 4.666,-1.6518 1.4163,0.8182 0.9028,4.8667 3.6605,0.9805 3.2156,-3.7632 1.635,-6e-4 3.2152,3.7636 3.6609,-0.9809 0.9026,-4.8665 1.4161,-0.818 4.666,1.6518 2.6797,-2.6796 -1.6516,-4.6655 0.8212,-1.4317 4.8634,-0.8888 0.9806,-3.6596 -3.7633,-3.2156 -2e-4,-1.6346 3.7637,-3.2153 -0.981,-3.6608 -4.8664,-0.9026 -0.8184,-1.4161 z"
         style="fill:#ffffff;fill-rule:evenodd"
         id="path3" />
      <path
         d="m 150.7835,129.6969 c 2.9056,2.9055 4.359,6.7145 4.3588,10.5231 2e-4,3.8085 -1.4532,7.6175 -4.3588,10.523 -2.9056,2.9056 -6.7145,4.359 -10.5231,4.3588 -3.8085,2e-4 -7.6175,-1.4532 -10.5231,-4.3588 -2.9055,-2.9055 -4.3589,-6.7145 -4.3587,-10.523 -2e-4,-3.8086 1.4532,-7.6176 4.3587,-10.5231 2.9056,-2.9056 6.7146,-4.359 10.5231,-4.3588 3.8086,-2e-4 7.6175,1.4532 10.5231,4.3588 z m 2.9412,10.5231 c 2e-4,-3.4458 -1.3144,-6.892 -3.9434,-9.5209 -2.629,-2.629 -6.0751,-3.9437 -9.5209,-3.9435 -3.4457,-2e-4 -6.8919,1.3145 -9.5209,3.9435 -2.6289,2.6289 -3.9436,6.0751 -3.9434,9.5209 -2e-4,3.4457 1.3145,6.8919 3.9434,9.5208 2.629,2.629 6.0752,3.9437 9.5209,3.9435 3.4458,2e-4 6.8919,-1.3145 9.5209,-3.9435 2.629,-2.6289 3.9436,-6.0751 3.9434,-9.5208 z"
         style="fill:#ffffff;fill-rule:evenodd"
         id="path4" />
      <path
         d="m 129.9797,144.2085 1.7829,-1.7829 c -0.4839,-1.5807 -0.5464,-3.262 -0.1878,-4.8665 0.3798,-1.6987 1.2303,-3.3132 2.5508,-4.6337 1.3094,-1.3095 2.9101,-2.1566 4.5968,-2.5412 1.7391,-0.3965 3.5681,-0.2981 5.2614,0.2948 l 1.0641,0.3726 -5.0711,5.0712 c -0.2782,0.2782 -0.4177,0.645 -0.4185,1.0114 8e-4,0.3664 0.1403,0.7332 0.4185,1.0114 l 2.3578,2.3578 c 0.2782,0.2782 0.645,0.4177 1.0114,0.4185 0.3664,-8e-4 0.7332,-0.1403 1.0114,-0.4185 l 5.0711,-5.0711 0.3726,1.0641 c 0.5929,1.6933 0.6914,3.5227 0.2951,5.2615 -0.3847,1.6867 -1.2317,3.2874 -2.5412,4.5969 -1.3205,1.3205 -2.935,2.171 -4.6338,2.5508 -1.6045,0.3586 -3.286,0.2959 -4.8664,-0.1878 l -1.7829,1.7829 -1.0022,-1.0022 2.4074,-2.4075 0.4234,0.1524 c 1.4487,0.5207 3.0182,0.6141 4.5117,0.2804 1.4429,-0.3229 2.8159,-1.0465 3.9406,-2.1712 1.1177,-1.1176 1.8396,-2.4782 2.1656,-3.9078 0.2507,-1.1002 0.2686,-2.2441 0.0537,-3.3517 l -3.4125,3.4125 c -0.5528,0.5528 -1.2824,0.8294 -2.0116,0.8298 h -0.004 c -0.7292,-4e-4 -1.4588,-0.277 -2.0116,-0.8298 l -2.3578,-2.3578 c -0.553,-0.553 -0.8296,-1.2826 -0.8298,-2.0116 v -0.004 c 4e-4,-0.7292 0.277,-1.4588 0.8298,-2.0116 l 3.4125,-3.4125 c -1.1077,-0.2149 -2.2512,-0.197 -3.3516,0.0539 -1.4295,0.3259 -2.7901,1.0479 -3.9078,2.1656 -1.1246,1.1246 -1.8482,2.4976 -2.1711,3.9406 -0.3337,1.4935 -0.2403,3.0629 0.2804,4.5117 l 0.1523,0.4233 -2.4074,2.4075 z"
         style="fill:#ffffff;fill-rule:evenodd"
         id="path5" />
    </g>
    <path
       d="m 140.256,100.2019 c 2.4999,0 4.9462,0.2296 7.3193,0.6684 0.4176,-0.1851 0.8584,-0.3824 1.3247,-0.593 11.7085,-5.2886 22.9702,-9.3691 33.1169,-12.0555 l -0.0468,-0.1749 1.9329,-1.6517 v -0.1616 l -1.9326,-1.6512 0.7081,-2.6419 2.4953,-0.4493 0.085,-0.1491 -0.8498,-2.4006 1.933,-1.9324 2.3896,0.8558 0.1468,-0.0856 0.464,-2.5016 2.6396,-0.7072 1.6521,1.9338 h 0.1599 l 1.6526,-1.9338 2.6382,0.7066 0.4634,2.4993 0.1412,0.082 2.3972,-0.8484 1.9324,1.9315 -0.8484,2.3981 0.0805,0.1395 2.5002,0.4637 0.6857,2.5588 c 2.8805,-0.0507 5.9547,0.1052 8.8543,0.6744 3.2173,0.6313 6.2283,1.7722 8.5419,3.7012 0.9709,0.8096 1.7634,1.7135 2.3814,2.7025 2.173,3.4779 2.2102,8.0057 0.3637,13.26 -1.8241,5.1905 -5.4939,11.1044 -10.7606,17.422 -8.5666,10.2761 -21.373,21.6397 -37.3434,32.7072 -2.0307,5.122 -5.0882,9.7254 -8.9183,13.5556 -7.2423,7.2422 -17.2483,11.7221 -28.3,11.7221 -2.0018,0 -3.9694,-0.1477 -5.8924,-0.4314 -2.7329,1.2855 -5.4924,2.5288 -8.2684,3.7199 -12.0614,5.1752 -24.4306,9.3625 -36.2324,11.7184 0.1103,1.501 -0.949,2.8647 -2.4571,3.1348 -1.5117,0.2708 -2.9514,-0.6715 -3.3681,-2.1103 -8.6185,1.2543 -20.4953,1.7614 -26.9288,-3.5606 -0.7796,-0.6614 -1.406,-1.3193 -2.0081,-2.1464 -4.1414,-5.8856 -1.2889,-13.6761 1.758,-19.3598 3.7293,-6.8397 8.9816,-13.0646 14.3717,-18.6494 9.464,-9.739 20.2643,-18.3334 31.4124,-26.0584 l 0.003,0.005 c 2.0191,-5.5353 5.2248,-10.4993 9.3098,-14.5843 7.2423,-7.2422 17.2483,-11.7221 28.3,-11.7221 z m 8.4404,0.8923 c 7.6646,1.6455 14.5148,5.4851 19.8596,10.8298 7.2425,7.2425 11.7224,17.2488 11.7224,28.3003 0,4.7653 -0.8334,9.3361 -2.3619,13.5754 15.5254,-10.8448 27.9831,-21.9422 36.3586,-31.9893 5.2124,-6.2524 8.8399,-12.0926 10.6359,-17.2032 1.7736,-5.0471 1.7549,-9.3693 -0.2974,-12.6538 -0.5799,-0.9284 -1.3226,-1.7757 -2.2317,-2.5337 -2.2102,-1.8425 -5.1131,-2.9378 -8.2261,-3.5486 -3.1014,-0.6086 -6.4069,-0.7373 -9.4499,-0.6458 l -1.1803,1.0083 -6e-4,0.1616 1.9332,1.6517 -0.7072,2.6402 -2.4973,0.4561 -0.0837,0.1457 0.849,2.399 -1.9315,1.9315 -2.3984,-0.8484 -0.1392,0.0805 -0.4637,2.4999 -2.6396,0.7075 -1.6521,-1.9338 h -0.1604 l -1.6526,1.9338 -2.6391,-0.7072 -0.4637,-2.4999 -0.1395,-0.0808 -2.3981,0.8484 -1.9321,-1.9315 0.8487,-2.3981 -0.0805,-0.1398 -2.4999,-0.4643 -0.4776,-1.7819 c -10.1047,2.6748 -21.3299,6.7431 -33.0089,12.0187 l -0.3813,0.1717 z m -15.569,78.5192 c -8.1946,-1.4732 -15.5236,-5.4411 -21.1714,-11.0889 -7.2425,-7.2425 -11.7224,-17.2488 -11.7224,-28.3002 0,-4.3974 0.7098,-8.629 2.0203,-12.587 -3.3568,2.3442 -6.6529,4.752 -9.9011,7.2482 -9.504,7.3409 -18.7098,15.4457 -26.4685,24.6407 -4.3257,5.1764 -8.6724,11.2334 -10.918,17.6505 -1.8209,5.3779 -2.0987,11.0191 2.596,14.9964 6.2867,5.1837 17.9269,4.6083 26.3597,3.3968 -0.0601,-1.4633 0.9858,-2.7757 2.4621,-3.0402 1.4828,-0.2656 2.8962,0.6358 3.3429,2.0288 11.7536,-2.3466 24.0752,-6.5177 36.0916,-11.6737 2.4514,-1.0516 4.89,-2.1447 7.3088,-3.2714 z m 40.9887,-22.3538 c -2.6572,1.7853 -5.394,3.5601 -8.2085,5.3187 -8.5199,5.3234 -17.9842,10.6503 -27.8731,15.4777 0.735,0.0425 1.4757,0.0646 2.2215,0.0646 10.4652,0 19.9397,-4.2417 26.797,-11.099 2.8429,-2.8429 5.2351,-6.1356 7.0631,-9.762 z m -37.4805,20.6895 c 10.2572,-4.9535 20.0832,-10.4635 28.8984,-15.9718 3.1631,-1.9763 6.228,-3.973 9.1902,-5.9816 2.2008,-4.8019 3.4282,-10.1435 3.4282,-15.7714 0,-10.465 -4.2418,-19.9398 -11.0994,-26.7974 -6.8573,-6.8573 -16.3318,-11.099 -26.797,-11.099 -10.4652,0 -19.9397,4.2417 -26.797,11.099 -6.8576,6.8576 -11.0994,16.3324 -11.0994,26.7974 0,10.4649 4.2418,19.9397 11.0994,26.7973 6.057,6.057 14.1565,10.0726 23.1766,10.9275 z M 198.8719,81.157 c 1.4236,1.4233 2.1351,3.2896 2.1351,5.1557 0,1.866 -0.7115,3.7318 -2.1351,5.1556 -1.4235,1.4233 -3.2896,2.1354 -5.1556,2.1354 -1.8661,0 -3.7321,-0.7121 -5.156,-2.1354 -1.4229,-1.4238 -2.135,-3.2896 -2.135,-5.1556 0,-1.8661 0.7121,-3.7324 2.135,-5.1557 1.4239,-1.4235 3.2899,-2.1359 5.156,-2.1359 1.866,0 3.7321,0.7124 5.1556,2.1359 z m 1.4406,5.1557 c 0,-1.6883 -0.6435,-3.3769 -1.9321,-4.665 -1.2878,-1.2878 -2.9758,-1.9321 -4.6641,-1.9321 -1.688,0 -3.3766,0.6443 -4.6644,1.9321 -1.2884,1.2881 -1.9327,2.9767 -1.9327,4.665 0,1.688 0.6443,3.3766 1.9327,4.6644 1.2878,1.2883 2.9764,1.9327 4.6644,1.9318 1.6883,9e-4 3.3763,-0.6435 4.6641,-1.9318 1.2886,-1.2878 1.9321,-2.9764 1.9321,-4.6644 z m 1.906,-7.1898 -1.313,-1.3127 -2.2858,0.8095 -0.6945,-0.4013 -0.442,-2.384 -1.7934,-0.4804 -1.5755,1.8442 -0.8003,-9e-4 -1.5757,-1.8433 -1.7932,0.4804 -0.442,2.3837 -0.7015,0.409 -2.2794,-0.8166 -1.3124,1.3124 0.809,2.2856 -0.4039,0.7089 -2.3809,0.4286 -0.4807,1.7926 1.8436,1.5758 v 0.8002 l -1.8436,1.5761 0.4807,1.7929 2.384,0.4422 0.4011,0.6942 -0.8093,2.2865 1.3127,1.3127 2.2862,-0.8093 0.6936,0.4005 0.4428,2.3845 1.7929,0.4805 1.576,-1.8442 h 0.8006 l 1.5757,1.8442 1.7929,-0.4808 0.4422,-2.3842 0.6943,-0.4008 2.2858,0.8093 1.313,-1.313 -0.809,-2.2856 0.402,-0.7016 2.3828,-0.4354 0.4807,-1.7926 -1.8442,-1.5761 v -0.8002 l 1.8442,-1.5758 -0.4807,-1.7932 -2.3843,-0.4427 -0.4008,-0.6934 z"
       style="fill:#ffffff;fill-rule:evenodd"
       id="path6" />
    <path
       d="m 146.5392,97.0857 c -2.8902,-0.4004 -5.6487,-0.5311 -8.5643,-0.3871 l 0.0445,0.8492 c 2.8587,-0.141 5.5646,-0.0132 8.3987,0.3793 l 0.1211,-0.8414 -8.5643,-0.3871 c -1.1211,0.0621 -2.2568,0.1543 -3.3692,0.306 l 0.114,0.8427 c 3.8725,-0.4953 7.9737,-0.553 11.8195,-0.7616 z m -16.156,0.6786 c -2.783,0.6375 -5.5211,1.5727 -8.1217,2.7499 l 0.3528,0.7734 c 2.5592,-1.1537 5.2243,-2.068 7.9616,-2.6948 z m -11.9379,4.7137 c -2.4631,1.407 -4.8307,3.1352 -6.9621,5.0051 l 0.5636,0.6369 c 2.0784,-1.8299 4.4201,-3.5326 6.8253,-4.9064 z m -10.0408,7.9942 c -1.9404,2.0316 -3.7238,4.4268 -5.211,6.8082 l 0.7234,0.4475 c 1.4439,-2.3255 3.2181,-4.6955 5.1095,-6.6758 z m -7.2918,10.5642 c -1.2643,2.5886 -2.2639,5.2451 -3.0019,8.0303 l 0.8226,0.2152 c 0.7339,-2.7424 1.698,-5.3235 2.9441,-7.8745 z m -3.8922,12.2297 c -0.4566,2.8401 -0.621,5.6833 -0.5209,8.5574 l 0.8498,-0.0337 c -0.0966,-2.8236 0.063,-5.6015 0.5114,-8.3917 z m -0.1546,12.8324 c 0.344,2.7682 1.0666,5.708 1.9775,8.3444 l 0.8028,-0.28 c -0.8915,-2.5971 -1.5989,-5.4524 -1.9376,-8.1784 z m 3.5749,12.3283 c 1.1046,2.4031 2.7156,5.3128 4.3347,7.3985 l 0.6849,-0.5036 c -1.6313,-2.1893 -3.1079,-4.7725 -4.2481,-7.2527 z m 7.0254,10.7413 c 1.892,2.1316 4.022,4.1015 6.2965,5.8191 l 0.5105,-0.6802 c -2.2312,-1.6861 -4.3169,-3.6148 -6.1737,-5.7063 z m 9.8406,8.2386 c 2.4279,1.4967 5.0406,2.7546 7.7162,3.7407 l 0.2896,-0.7998 c -2.6166,-0.9605 -5.1899,-2.204 -7.563,-3.667 z m 11.8129,5.0208 c 2.8034,0.7208 5.5816,1.1466 8.4708,1.3162 l 0.0469,-0.8489 c -2.8325,-0.1663 -5.5599,-0.5846 -8.3083,-1.2913 z m 12.7641,1.3441 c 2.8467,-0.1256 5.7216,-0.5102 8.4897,-1.1929 l -0.2034,-0.8255 c -2.7246,0.6676 -5.5243,1.0451 -8.3257,1.1689 z m 12.6065,-2.4092 c 2.7074,-0.9548 5.3021,-2.1558 7.7706,-3.6227 l -0.4357,-0.73 c -2.4386,1.4401 -4.949,2.6094 -7.6198,3.5513 z m 11.3491,-5.9905 c 2.2787,-1.6415 4.4812,-3.6613 6.3779,-5.7306 l -0.6284,-0.5729 c -1.8602,2.0286 -4.0188,4.0089 -6.2532,5.6185 z m 9.1172,-9.0369 c 1.7297,-2.3206 3.1848,-4.7242 4.441,-7.3314 l -0.7674,-0.3662 c -1.2251,2.5516 -2.6657,4.9226 -4.3569,7.1918 z m 6.1006,-11.2924 c 0.9641,-2.6895 1.6914,-5.483 2.1046,-8.3116 l -0.8414,-0.1211 c -0.4701,2.8645 -1.0832,5.4113 -2.0644,8.1483 z m 2.5303,-12.581 c 0.136,-2.8706 0.0108,-5.7193 -0.4051,-8.5639 l -0.841,0.1247 c 0.4063,2.7914 0.5303,5.5812 0.397,8.398 z m -1.2316,-12.7764 c -0.6821,-2.7403 -1.6521,-5.5312 -2.8777,-8.0767 l -0.7671,0.3667 c 1.2024,2.5404 2.1418,5.1915 2.8206,7.9184 z m -4.9013,-11.8617 c -1.4336,-2.3918 -3.2164,-4.8375 -5.1138,-6.8823 l -0.6267,0.5745 c 1.8882,2.0853 3.5658,4.3343 5.0125,6.7479 z m -8.1504,-9.9139 c -2.1204,-1.923 -4.4351,-3.632 -6.8892,-5.1043 l -0.4346,0.7313 c 2.4009,1.4357 4.6822,3.1254 6.7546,5.0046 z m -10.6753,-7.1247 c -2.7347,-1.291 -5.1801,-2.0758 -8.0793,-2.8761 l -0.1996,0.8268 c 2.7246,0.6755 5.3787,1.6202 7.9173,2.8187 z"
       style="fill:#ffffff;fill-rule:evenodd"
       id="path7" />
    <g
       id="Layer1001">
      <path
         d="m 93.6451,156.3891 c -0.6656,-1.921 -1.2158,-3.8908 -1.641,-5.8986 -0.4198,-1.9837 -0.7211,-4.0102 -0.8946,-6.0701 l 0.847,-0.0698 c 0.1709,2.0277 0.4666,4.0184 0.8781,5.9636 0.4204,1.9862 0.9607,3.9226 1.611,5.7994 z"
         style="fill:#ffffff;fill-rule:evenodd"
         id="path8" />
      <path
         d="m 100.7898,169.8134 c 2.9744,3.9555 6.5761,7.5209 10.5933,10.4069 l 0.4984,-0.6889 c -3.9271,-2.8414 -7.5016,-6.3311 -10.4083,-10.2208 0.6211,-0.7019 0.6894,-1.7238 0.1191,-2.5263 -0.6829,-0.9023 -1.8953,-1.0902 -2.8179,-0.4345 -0.9023,0.6828 -1.0902,1.8952 -0.4346,2.8179 0.5953,0.7863 1.5928,1.0301 2.45,0.6457 z m -0.2279,-1.0244 c -0.4445,0.3274 -1.086,0.2299 -1.4088,-0.2172 -0.3277,-0.4447 -0.2296,-1.0862 0.2171,-1.4088 0.4445,-0.3274 1.086,-0.2299 1.4088,0.2172 0.3277,0.4447 0.2296,1.0862 -0.2171,1.4088 z"
         style="fill:#ffffff;fill-rule:evenodd"
         id="path9" />
      <path
         d="m 119.1957,184.8396 c -0.6735,-0.3181 -1.3422,-0.6537 -2.0044,-1.0046 -0.6667,-0.3535 -1.3209,-0.7197 -1.9607,-1.097 l 0.432,-0.7308 c 0.6364,0.3753 1.2784,0.735 1.9239,1.0772 0.6452,0.3421 1.3031,0.6718 1.9715,0.9876 z"
         style="fill:#ffffff;fill-rule:evenodd"
         id="path10" />
      <path
         d="m 143.9572,189.413 c -0.5978,0.0442 -1.2144,0.0785 -1.8479,0.1018 -0.6404,0.0235 -1.2586,0.0357 -1.8533,0.0357 -2.9381,0 -5.8175,-0.2574 -8.6156,-0.7503 -2.8619,-0.5043 -5.6427,-1.2572 -8.3172,-2.2349 l 0.2892,-0.7971 c 2.6223,0.9587 5.3549,1.698 8.1742,2.1946 2.7494,0.4842 5.58,0.7373 8.4694,0.7373 0.6355,0 1.2438,-0.0108 1.8232,-0.0323 0.5939,-0.0218 1.2011,-0.0561 1.8185,-0.1018 z"
         style="fill:#ffffff;fill-rule:evenodd"
         id="path11" />
      <path
         d="m 158.991,185.8671 c 4.5956,-1.8943 8.7937,-4.4169 12.6408,-7.5795 l -0.5414,-0.6559 c -3.6669,3.0444 -7.9863,5.6423 -12.4152,7.4488 -0.5275,-0.7823 -1.4774,-1.0998 -2.4128,-0.7517 -1.0514,0.4507 -1.529,1.544 -1.1293,2.6181 0.4504,1.0513 1.544,1.529 2.618,1.1293 0.9179,-0.3935 1.3984,-1.2765 1.2399,-2.2091 z m -1.0474,-0.0368 c 0.2033,0.5335 -0.0431,1.0857 -0.5646,1.309 -0.5335,0.2033 -1.0857,-0.043 -1.3091,-0.5646 -0.2032,-0.5335 0.0431,-1.0857 0.5647,-1.3091 0.5335,-0.2032 1.0857,0.0431 1.309,0.5647 z"
         style="fill:#ffffff;fill-rule:evenodd"
         id="path12" />
      <path
         d="m 175.5677,174.6635 -0.4121,0.4178 -0.4193,0.4147 -0.5913,-0.6077 0.4091,-0.4051 0.4059,-0.411 z"
         style="fill:#ffffff;fill-rule:evenodd"
         id="path13" />
      <path
         d="m 180.2846,169.0515 c -0.4005,0.5553 -0.8016,1.089 -1.2013,1.5981 -0.4057,0.5171 -0.828,1.0333 -1.266,1.5472 l -0.6446,-0.5516 c 0.4181,-0.4907 0.8331,-0.9984 1.2427,-1.5205 0.415,-0.5287 0.809,-1.052 1.1815,-1.5682 z"
         style="fill:#ffffff;fill-rule:evenodd"
         id="path14" />
      <path
         d="m 189.4669,136.8343 c 0.0368,0.5474 0.0657,1.1129 0.0853,1.6954 0.0195,0.5913 0.03,1.1571 0.03,1.6946 0,2.3246 -0.1621,4.6173 -0.4753,6.8663 -0.3192,2.2915 -0.7954,4.5309 -1.4159,6.7048 l -0.817,-0.2324 c 0.6114,-2.1422 1.08,-4.3427 1.3927,-6.5886 0.3067,-2.2005 0.4651,-4.4547 0.4651,-6.7501 0,-0.5877 -0.009,-1.1438 -0.0266,-1.668 -0.0181,-0.5422 -0.0471,-1.0984 -0.0853,-1.6653 z"
         style="fill:#ffffff;fill-rule:evenodd"
         id="path15" />
      <path
         d="m 184.3574,118.1208 c -2.2768,-4.5218 -5.1383,-8.5484 -8.6564,-12.2074 l -0.6112,0.5913 c 3.4586,3.6003 6.2629,7.5427 8.5023,11.9883 -0.7268,0.5718 -0.9805,1.6095 -0.5624,2.467 0.4765,1.0006 1.7061,1.4122 2.6952,0.9298 1.0003,-0.4765 1.4122,-1.7059 0.9297,-2.6952 -0.4141,-0.87 -1.3975,-1.2946 -2.2972,-1.0738 z m 0.0434,1.0503 c 0.4926,-0.2464 1.1126,-0.0287 1.3476,0.4648 0.2463,0.4927 0.0286,1.1126 -0.4649,1.3476 -0.4927,0.2464 -1.1126,0.0287 -1.3476,-0.4649 -0.2463,-0.4926 -0.0286,-1.1126 0.4649,-1.3475 z"
         style="fill:#ffffff;fill-rule:evenodd"
         id="path16" />
      <path
         d="m 162.1003,95.9856 c 1.9154,0.9462 3.7565,2.0112 5.514,3.1836 1.7745,1.1835 3.4639,2.4772 5.0581,3.8688 l -0.5578,0.6377 c -1.5659,-1.3668 -3.2264,-2.6382 -4.972,-3.8023 -1.7226,-1.1492 -3.5314,-2.1952 -5.4176,-3.1269 z"
         style="fill:#ffffff;fill-rule:evenodd"
         id="path17" />
      <path
         d="m 146.9375,91.3479 c 1.9024,0.2574 3.765,0.6219 5.5798,1.0862 1.8394,0.4703 3.6459,1.0485 5.4116,1.7263 l -0.3022,0.7909 c -1.7186,-0.6596 -3.4943,-1.2269 -5.3186,-1.6934 -1.7961,-0.4595 -3.6267,-0.8187 -5.4834,-1.0698 z"
         style="fill:#ffffff;fill-rule:evenodd"
         id="path18" />
      <path
         d="m 140.256,90.898 c -6.7238,0 -13.3869,1.3564 -19.5588,4.03 l 0.3374,0.7807 c 6.129,-2.6269 12.5501,-3.9603 19.2214,-3.9603 0.9811,0 1.9919,0.0218 2.9767,0.0856 0.1272,0.9136 0.9104,1.6685 1.8541,1.73 1.0939,0.0972 2.0855,-0.7773 2.1563,-1.8649 0.0972,-1.0939 -0.7775,-2.0855 -1.8649,-2.1563 -0.9485,-0.0842 -1.8201,0.5621 -2.0812,1.4445 -1.0077,-0.0643 -2.0341,-0.0893 -3.041,-0.0893 z m 3.9711,0.5825 c 0.0493,-0.5683 0.5093,-0.9572 1.0783,-0.9326 0.5683,0.0494 0.9572,0.5091 0.9326,1.0783 -0.0494,0.5684 -0.5094,0.9573 -1.0783,0.9326 -0.5684,-0.0493 -0.9573,-0.5091 -0.9326,-1.0783 z"
         style="fill:#ffffff;fill-rule:evenodd"
         id="path19" />
      <path
         d="m 110.7462,100.696 c -6.3981,4.7746 -11.5928,11.1087 -15.0318,18.3135 l 0.7676,0.3662 c 3.4293,-7.1427 8.4348,-13.2488 14.7676,-17.9932 0.7013,0.6205 1.721,0.6928 2.5237,0.1225 0.9074,-0.6622 1.0865,-1.9069 0.44,-2.8171 -0.6823,-0.9017 -1.8933,-1.0962 -2.8171,-0.4399 -0.7897,0.5763 -1.0279,1.5936 -0.65,2.448 z m 1.0244,-0.2254 c -0.3302,-0.4246 -0.2216,-1.1061 0.22,-1.4082 0.4246,-0.3303 1.1061,-0.2217 1.4083,0.2199 0.3302,0.4247 0.2216,1.1061 -0.22,1.4083 -0.4246,0.3302 -1.1061,0.2217 -1.4083,-0.22 z"
         style="fill:#ffffff;fill-rule:evenodd"
         id="path20" />
    </g>
    <g
       id="Layer1002">
      <path
         d="m 44.3693,139.7991 h -8.0045 v 0.8503 h 8.0045 c 0.1959,0.9083 1.0049,1.5909 1.9706,1.5909 0.9661,0 1.7748,-0.6826 1.9707,-1.5909 h 52.986 v -0.8503 h -52.986 c -0.1959,-0.9083 -1.0049,-1.5908 -1.9707,-1.5908 -0.966,0 -1.7747,0.6825 -1.9706,1.5908 z m 0.9626,0.4252 c 0,-0.5554 0.4524,-1.008 1.008,-1.008 0.5556,0 1.008,0.4526 1.008,1.008 0,0.5553 -0.4524,1.008 -1.008,1.008 -0.5556,0 -1.008,-0.4527 -1.008,-1.008 z"
         style="fill:#ffffff;fill-rule:evenodd"
         id="path21" />
      <path
         d="m 234.87,139.7991 h -17.208 c -0.1962,-0.9071 -1.0066,-1.5908 -1.9707,-1.5908 -0.9641,0 -1.7745,0.6837 -1.9706,1.5908 h -34.5053 v 0.8503 h 34.5053 c 0.1961,0.9071 1.0065,1.5909 1.9706,1.5909 0.9641,0 1.7745,-0.6838 1.9707,-1.5909 h 17.208 c 0.1958,0.9083 1.0048,1.5909 1.9706,1.5909 0.966,0 1.7748,-0.6826 1.9706,-1.5909 h 0.7504 v 2.2057 h 1.008 v -2.2057 h 0.6519 v 2.4064 l 5.6631,-2.8315 -5.6631,-2.8316 v 2.4064 h -0.6519 v -2.2057 h -1.008 v 2.2057 h -0.7504 c -0.1958,-0.9083 -1.0048,-1.5908 -1.9706,-1.5908 -0.966,0 -1.7748,0.6825 -1.9706,1.5908 z m 7.3595,-0.7756 2.4013,1.2008 -2.4013,1.2007 z m -6.3969,1.2008 c 0,-0.5554 0.4524,-1.008 1.008,-1.008 0.5556,0 1.008,0.4526 1.008,1.008 0,0.5553 -0.4524,1.008 -1.008,1.008 -0.5556,0 -1.008,-0.4527 -1.008,-1.008 z"
         style="fill:#ffffff;fill-rule:evenodd"
         id="path22" />
    </g>
    <path
       d="m 139.8308,236.7329 v 8.0045 h 0.8504 v -8.0045 c 0.9082,-0.1959 1.5908,-1.0049 1.5908,-1.9707 0,-0.966 -0.6826,-1.7747 -1.5908,-1.9706 v -52.9861 h -0.8504 v 52.9861 c -0.9082,0.1959 -1.5908,1.0049 -1.5908,1.9706 0,0.9661 0.6826,1.7748 1.5908,1.9707 z m 0.4252,-0.9627 c -0.5553,0 -1.008,-0.4524 -1.008,-1.008 0,-0.5556 0.4527,-1.008 1.008,-1.008 0.5553,0 1.008,0.4524 1.008,1.008 0,0.5556 -0.4527,1.008 -1.008,1.008 z"
       style="fill:#ffffff;fill-rule:evenodd"
       id="path23" />
    <path
       d="m 139.8308,49.9564 v 15.7748 c -0.9071,0.1798 -1.5908,0.9227 -1.5908,1.8065 0,0.8838 0.6837,1.6267 1.5908,1.8065 v 31.6315 h 0.8504 V 69.3442 c 0.9071,-0.1798 1.5908,-0.9227 1.5908,-1.8065 0,-0.8838 -0.6837,-1.6267 -1.5908,-1.8065 V 49.9564 c 0.9082,-0.1796 1.5908,-0.9212 1.5908,-1.8066 0,-0.8855 -0.6826,-1.6269 -1.5908,-1.8065 v -0.6878 h 2.2056 v -0.9241 h -2.2056 v -0.5976 h 2.4063 l -2.8315,-5.1914 -2.8315,5.1914 h 2.4063 v 0.5976 h -2.2056 v 0.9241 h 2.2056 v 0.6878 c -0.9082,0.1796 -1.5908,0.9212 -1.5908,1.8065 0,0.8856 0.6826,1.627 1.5908,1.8066 z m -0.7756,-6.7467 1.2008,-2.2012 1.2008,2.2012 z m 1.2008,5.8642 c -0.5553,0 -1.008,-0.4147 -1.008,-0.9241 0,-0.5093 0.4527,-0.924 1.008,-0.924 0.5553,0 1.008,0.4147 1.008,0.924 0,0.5094 -0.4527,0.9241 -1.008,0.9241 z"
       style="fill:#ffffff;fill-rule:evenodd"
       id="path24" />
    <path
       d="m 90.5278,129.2635 c -4.9138,-8.0589 -10.4737,-21.7786 -2.6597,-29.8233 6.3402,-6.3261 17.81,-5.2563 25.7564,-3.452 10.1795,2.3536 19.9752,6.8972 28.9604,12.1535 9.4723,5.5843 18.2631,12.1624 26.288,19.6796 6.7198,6.3357 13.1116,13.515 18.0479,21.3831 0.8977,-0.3455 1.9703,-0.011 2.4661,0.8513 0.4995,0.8472 0.3042,1.9536 -0.4342,2.5701 3.4489,5.9976 6.1205,12.6525 5.4394,19.7195 -0.3195,3.005 -1.2544,5.6078 -3.2514,7.909 -5.9346,6.6413 -17.1995,5.8683 -25.0767,4.231 -10.5701,-2.24 -20.8423,-6.9775 -30.1277,-12.4096 -6.2328,-3.6705 -12.1918,-7.7952 -17.8365,-12.3179 -9.5507,-7.6635 -18.6817,-16.8367 -25.461,-27.129 -0.8941,0.3671 -1.9585,0.0624 -2.4826,-0.7894 -0.529,-0.8595 -0.3535,-1.929 0.3716,-2.5759 z m 0.6112,-0.3739 c 0.8798,-0.3279 1.9227,-0.0218 2.4346,0.8102 0.5205,0.8456 0.3586,1.8941 -0.337,2.5441 3.8492,5.828 8.3208,11.1177 13.2279,16.1067 8.8514,8.9252 19.0043,16.7324 29.8306,23.114 4.6605,2.732 9.4408,5.1993 14.4131,7.3151 8.0039,3.3939 17.4889,6.3122 26.2667,6.1237 8.3644,-0.2211 15.7487,-3.4393 16.7119,-12.6284 0.6951,-6.8649 -2.0092,-13.477 -5.3425,-19.3008 -0.8895,0.3215 -1.9389,-0.0159 -2.4275,-0.8657 -0.491,-0.8325 -0.3113,-1.9148 0.396,-2.5373 -2.8721,-4.5686 -6.1881,-8.8223 -9.7688,-12.8645 -9.7637,-10.9641 -21.6791,-20.51 -34.3179,-27.9538 -4.6639,-2.734 -9.4383,-5.1956 -14.4131,-7.3151 -8.011,-3.3931 -17.4818,-6.3125 -26.2666,-6.1237 -6.4939,0.1718 -10.7224,1.9673 -13.385,4.6072 -6.6497,6.5922 -3.054,19.0445 2.9776,28.9683 z"
       style="fill:#ffffff;fill-rule:evenodd"
       id="path25" />
    <path
       d="M 159.9965,236.77434 V 206.3145 h 5.0899 v 13.78313 h 0.0792 l 11.82984,-13.78313 h 6.43133 l -11.79077,13.32281 12.09984,17.13703 H 177.607 l -9.1669,-13.55329 -3.35373,3.80777 v 9.74552 z m 26.97479,0 V 206.3145 h 20.00424 v 4.34011 h -14.91418 v 8.24625 h 13.44786 v 4.26104 h -13.44786 v 9.31188 h 15.29574 v 4.30056 z m 25.00832,0 V 206.3145 h 11.91581 c 3.18961,0 5.67526,0.85475 7.45724,2.55813 1.78872,1.7095 2.68317,3.95854 2.68317,6.75327 0,2.8738 -0.92064,5.14245 -2.75566,6.81289 -1.84113,1.66368 -4.27437,2.49897 -7.30569,2.49897 h -6.90482 v 11.83658 z m 5.09005,-16.13761 h 6.2076 c 1.7495,0 3.11039,-0.4208 4.08391,-1.26879 0.97979,-0.84864 1.46631,-2.09781 1.46631,-3.74204 0,-1.61756 -0.47366,-2.85387 -1.42709,-3.7025 -0.94685,-0.848 -2.34115,-1.26879 -4.16236,-1.26879 h -6.16837 z m 21.72691,16.13761 V 206.3145 h 5.09005 v 26.15928 h 13.79648 v 4.30056 z m 22.69399,0 V 206.3145 h 20.00408 v 4.34011 h -14.91418 v 8.24625 h 13.44786 v 4.26104 h -13.44786 v 9.31188 h 15.29574 v 4.30056 z m 30.09821,-16.49251 h 6.39837 c 1.72284,0 3.04466,-0.42078 3.9719,-1.26925 0.92738,-0.84816 1.38755,-2.07161 1.38755,-3.66282 0,-1.40716 -0.47366,-2.54479 -1.42709,-3.40628 -0.94685,-0.86149 -2.30146,-1.28887 -4.04391,-1.28887 h -6.28682 z m -5.0899,16.49251 V 206.3145 h 12.33691 c 3.13658,0 5.54975,0.82181 7.23351,2.45928 1.6833,1.64377 2.52518,3.69576 2.52518,6.1552 0,2.07772 -0.46032,3.77452 -1.38755,5.07657 -0.92723,1.30847 -1.99284,2.19617 -3.20248,2.65696 0.97305,0.67056 1.66996,1.37423 2.07772,2.12401 0.41451,0.74273 0.75654,1.87408 1.03894,3.38621 0.61815,3.03837 1.72283,5.90558 3.31467,8.60161 h -5.66193 c -1.2564,-2.1375 -2.24906,-4.87292 -2.96589,-8.22005 -0.28288,-1.30849 -0.70366,-2.30146 -1.25608,-2.96589 -0.55227,-0.67071 -1.42035,-1.00599 -2.60425,-1.00599 h -6.35885 v 12.19193 z"
       style="fill:#ffec00;fill-rule:evenodd;stroke-width:1.56892"
       id="path26" />
  </g>
</svg>
